<svg xmlns="http://www.w3.org/2000/svg" viewBox="26.933865450399086 31.6944 1662.0581527936147 800.88" version="1.0" preserveAspectRatio="xMidYMid meet" style="max-height: 500px" width="1662.0581527936147" height="800.88">
<metadata>
Created by potrace 1.16, written by Peter Selinger 2001-2019
</metadata>
<g transform="translate(0.000000,852.000000) scale(0.100000,-0.100000)" stroke="#FFFFFF" fill="#FFFFFF">
<path d="M1 8448 c0 -72 0 -73 17 -48 30 44 73 79 110 90 25 7 2419 10 7372 10 7315 0 7336 0 7375 -20 22 -11 43 -27 48 -35 15 -28 27 -15 27 30 0 45 0 45 -7475 45 -7475 0 -7475 0 -7474 -72z"/>
<path d="M6750 6034 c-129 -23 -267 -82 -375 -159 -73 -53 -209 -189 -204 -204 2 -6 244 -252 538 -545 534 -534 534 -534 508 -551 -14 -9 -59 -28 -99 -43 -64 -23 -89 -26 -203 -27 -111 0 -140 3 -197 23 -163 57 -316 203 -374 360 -14 37 -29 71 -34 75 -9 10 -288 12 -298 3 -11 -11 18 -124 52 -204 122 -286 367 -487 665 -547 125 -25 337 -17 446 17 178 57 273 114 408 246 48 48 87 89 87 93 0 3 -241 246 -535 539 -294 294 -535 538 -535 542 0 10 64 42 125 61 317 103 647 -55 774 -369 28 -69 28 -69 175 -72 120 -2 147 0 152 12 14 37 -70 254 -137 353 -117 172 -289 302 -484 368 -131 44 -312 55 -455 29z"/>
<path d="M8000 5860 c0 -105 3 -140 13 -140 421 -2 970 1 977 5 11 7 14 233 4 259 -5 14 -59 16 -500 16 -494 0 -494 0 -494 -140z"/>
<path d="M8012 5332 c-10 -7 -12 -123 -10 -548 3 -539 3 -539 137 -542 74 -1 138 1 143 6 5 5 9 187 8 405 0 397 0 397 352 399 353 3 353 3 356 132 2 86 -1 133 -9 142 -9 12 -93 14 -488 14 -262 0 -482 -4 -489 -8z"/>
<path d="M3082 3673 c-51 -25 -77 -69 -77 -130 0 -56 18 -90 69 -127 25 -19 46 -21 218 -26 185 -5 190 -6 209 -29 27 -33 25 -92 -4 -119 -22 -21 -32 -22 -218 -22 -199 0 -219 4 -219 40 0 13 22 15 179 12 181 -4 221 2 221 33 0 8 -9 19 -19 25 -21 11 -398 15 -425 4 -21 -8 -21 -75 -1 -114 28 -54 54 -60 267 -60 175 0 196 2 226 20 92 56 95 188 5 247 -23 15 -56 19 -216 23 -189 5 -189 5 -213 33 -38 45 -27 113 23 136 15 7 93 11 203 11 167 0 181 -1 200 -20 11 -11 20 -24 20 -30 0 -6 -71 -10 -194 -10 -160 0 -196 -3 -206 -15 -10 -12 -10 -18 0 -30 11 -13 46 -15 229 -13 216 3 216 3 219 45 4 52 -19 98 -58 118 -44 23 -391 21 -438 -2z"/>
<path d="M3990 3675 c-19 -23 -290 -496 -290 -506 0 -5 44 -9 98 -9 98 0 98 0 189 158 49 86 93 165 96 175 9 23 24 22 32 -4 8 -25 111 -203 137 -238 25 -32 23 -41 -9 -41 -39 0 -44 6 -92 93 -23 42 -46 77 -50 77 -13 0 -31 -24 -31 -41 0 -9 21 -53 47 -98 48 -81 48 -81 145 -81 54 0 98 4 98 9 0 12 -237 422 -254 439 -11 11 -32 -20 -124 -180 -61 -106 -116 -199 -122 -205 -13 -16 -70 -17 -70 -2 0 6 11 25 24 42 34 46 236 401 236 415 0 17 -45 15 -60 -3z"/>
<path d="M4482 3483 c3 -208 3 -208 263 -209 260 -1 260 -1 260 -28 0 -28 0 -28 -260 -29 -260 -2 -260 -2 -263 -29 -3 -28 -3 -28 288 -28 291 0 291 0 288 88 -3 87 -3 87 -262 88 -258 1 -258 1 -258 145 1 144 1 144 31 147 30 3 30 3 33 -115 3 -118 3 -118 28 -118 25 0 25 0 25 145 0 145 0 145 -88 148 -87 3 -87 3 -85 -205z"/>
<path d="M5170 3425 c0 -266 0 -266 88 -263 82 3 87 4 90 26 4 23 -36 112 -49 112 -4 0 -9 -19 -11 -42 -3 -39 -6 -43 -30 -46 -16 -2 -28 1 -28 7 0 6 -1 100 -1 209 0 197 0 197 48 200 48 2 48 2 143 -168 52 -93 100 -170 105 -170 6 0 55 77 109 170 98 170 98 170 147 170 49 0 49 0 47 -207 -3 -208 -3 -208 -32 -208 -29 0 -29 0 -27 164 2 131 0 162 -11 159 -7 -3 -53 -75 -103 -161 -90 -156 -90 -156 -127 -157 -36 0 -36 0 -128 158 -50 86 -96 161 -101 167 -5 5 -9 -12 -8 -45 1 -50 8 -68 82 -195 82 -140 82 -140 156 -140 74 0 74 0 120 92 25 51 51 92 56 92 7 1 9 -32 7 -94 -4 -96 -4 -96 84 -93 89 3 89 3 89 263 0 260 0 260 -95 260 -95 0 -95 0 -167 -125 -39 -69 -74 -135 -77 -147 -9 -33 -23 -28 -44 15 -10 20 -46 88 -81 150 -63 112 -63 112 -157 112 -94 0 -94 0 -94 -265z"/>
<path d="M6096 3435 c-80 -140 -146 -260 -146 -265 0 -6 39 -10 98 -10 97 0 97 0 196 175 91 161 116 196 116 163 0 -14 88 -170 132 -236 24 -35 27 -43 14 -48 -37 -14 -61 6 -105 86 -44 79 -63 95 -75 64 -11 -29 -6 -44 40 -124 47 -80 47 -80 145 -80 55 0 99 3 99 8 0 6 -149 266 -235 410 -14 24 -29 41 -34 38 -4 -3 -52 -83 -106 -178 -129 -227 -130 -228 -166 -228 -31 0 -37 14 -15 39 20 24 246 418 246 430 0 6 -13 11 -29 11 -28 0 -37 -13 -175 -255z"/>
<path d="M6677 3683 c-4 -3 -7 -123 -7 -265 0 -258 0 -258 90 -258 90 0 90 0 90 81 0 66 -4 86 -21 110 -11 16 -24 29 -29 29 -5 0 -10 -37 -12 -82 -3 -82 -3 -83 -30 -86 -28 -3 -28 -3 -28 207 0 211 0 211 48 211 47 -1 47 -1 191 -170 80 -94 148 -170 153 -170 4 0 8 77 8 170 0 170 0 170 33 170 32 0 32 0 30 -207 -1 -138 -6 -208 -13 -207 -5 1 -27 2 -47 3 -36 2 -46 11 -182 171 -80 94 -148 170 -153 170 -4 0 -8 -17 -8 -37 0 -34 14 -54 141 -200 140 -163 140 -163 230 -163 89 0 89 0 89 265 0 266 0 266 -87 263 -88 -3 -88 -3 -87 -130 1 -71 -2 -128 -6 -128 -5 0 -16 13 -27 29 -10 16 -58 75 -106 130 -88 101 -88 101 -171 101 -45 0 -86 -3 -89 -7z"/>
<path d="M7360 3542 c0 -184 12 -225 85 -298 65 -65 129 -89 224 -82 77 6 131 30 183 85 66 68 79 113 81 286 2 152 2 152 -28 152 -30 0 -30 0 -35 -161 -5 -155 -6 -162 -33 -202 -41 -63 -94 -93 -171 -99 -57 -5 -73 -2 -120 21 -98 48 -124 102 -128 269 -3 117 -3 117 27 117 30 0 30 0 30 -118 0 -105 2 -121 23 -154 76 -122 256 -107 307 25 12 32 15 71 13 172 -3 130 -3 130 -30 133 -28 3 -28 3 -28 -133 0 -155 -10 -188 -65 -211 -45 -18 -71 -18 -106 3 -49 29 -59 66 -59 212 0 131 0 131 -85 131 -85 0 -85 0 -85 -148z"/>
<path d="M8042 3483 c3 -208 3 -208 266 -208 263 0 263 0 260 -28 -3 -29 -3 -29 -263 -30 -260 -2 -260 -2 -263 -30 -3 -27 -3 -27 290 -25 293 3 293 3 296 76 2 48 -1 79 -9 89 -11 12 -51 14 -266 11 -253 -3 -253 -3 -253 145 0 147 0 147 30 147 29 0 29 0 32 -117 3 -118 3 -118 28 -118 25 0 25 0 25 145 0 145 0 145 -88 148 -87 3 -87 3 -85 -205z"/>
<path d="M9110 3425 c0 -265 0 -265 90 -265 91 0 91 0 88 88 -3 85 -3 87 -28 87 -23 0 -25 -4 -30 -60 -5 -57 -7 -60 -32 -63 -28 -3 -28 -3 -28 207 0 211 0 211 235 211 235 0 235 0 235 -30 0 -30 0 -30 -205 -30 -206 0 -206 0 -203 -87 3 -88 3 -88 178 -88 175 0 175 0 178 27 3 27 3 27 -150 30 -153 3 -153 3 -152 28 1 14 2 27 3 30 0 3 91 4 201 2 200 -3 200 -3 200 87 0 91 0 91 -290 91 -290 0 -290 0 -290 -265z"/>
<path d="M9926 3668 c-33 -55 -286 -498 -286 -503 0 -3 46 -4 102 -3 102 3 102 3 186 148 46 80 88 157 94 173 5 15 14 27 18 27 5 0 22 -27 39 -60 17 -32 53 -96 81 -140 27 -45 50 -86 50 -91 0 -6 -15 -9 -32 -7 -30 3 -37 11 -78 85 -25 45 -51 83 -58 83 -7 0 -17 -11 -23 -24 -10 -20 -5 -35 38 -107 50 -84 50 -84 151 -87 56 -1 102 0 102 3 0 11 -262 455 -268 455 -4 0 -54 -84 -112 -186 -58 -102 -113 -195 -122 -205 -10 -10 -29 -19 -43 -19 -25 0 -33 18 -16 36 14 14 251 426 251 436 0 4 -13 8 -30 8 -20 0 -34 -7 -44 -22z"/>
<path d="M10424 3677 c-3 -8 -4 -47 -2 -88 3 -74 3 -74 228 -74 225 0 225 0 225 25 0 25 0 25 -197 28 -198 2 -198 2 -198 32 0 30 0 30 203 30 222 0 233 -3 257 -60 10 -23 10 -36 1 -58 -22 -53 -37 -57 -286 -62 -230 -5 -230 -5 -230 -145 0 -140 0 -140 88 -143 87 -3 87 -3 87 58 0 60 0 60 68 60 67 0 67 0 97 -58 30 -57 30 -57 133 -60 56 -1 102 1 102 5 -1 4 -22 44 -48 88 -35 58 -54 81 -71 83 -40 6 -43 -11 -11 -61 35 -56 37 -67 11 -67 -36 0 -52 12 -76 59 -35 70 -39 72 -156 69 -104 -3 -104 -3 -106 -53 -1 -27 -2 -56 -2 -63 -1 -9 -11 -12 -28 -10 -28 3 -28 3 -31 93 -3 90 -3 90 210 90 209 0 214 0 247 24 91 65 85 202 -11 252 -33 17 -61 19 -268 19 -184 0 -232 -3 -236 -13z"/>
<path d="M11115 3677 c-3 -7 -4 -125 -3 -262 3 -250 3 -250 91 -253 88 -3 88 -3 85 25 -3 27 -5 28 -58 28 -55 0 -55 0 -58 208 -2 208 -2 208 29 205 30 -3 30 -3 32 -178 2 -175 2 -175 27 -175 25 0 25 0 28 208 2 207 2 207 -83 207 -60 0 -87 -4 -90 -13z"/>
<path d="M11472 3670 c-70 -43 -93 -138 -51 -207 38 -60 62 -67 272 -73 183 -5 189 -6 208 -29 27 -33 25 -86 -6 -116 -24 -25 -25 -25 -218 -25 -198 0 -210 2 -219 40 -2 12 27 14 191 14 169 1 195 3 204 18 8 12 7 21 -2 32 -12 14 -42 16 -230 14 -216 -3 -216 -3 -219 -56 -3 -49 0 -56 31 -87 35 -35 35 -35 239 -35 185 0 206 2 236 20 93 57 95 186 3 247 -32 22 -44 23 -212 23 -176 0 -178 0 -208 26 -25 20 -31 34 -31 64 0 22 8 47 19 61 19 24 23 24 211 27 170 3 194 1 211 -14 44 -40 29 -43 -178 -46 -196 -3 -198 -3 -201 -25 -5 -32 14 -34 248 -31 205 3 205 3 208 45 2 24 -4 55 -13 72 -28 55 -53 61 -267 61 -175 0 -196 -2 -226 -20z"/>
<path d="M6292 2888 c-7 -7 -12 -38 -12 -70 0 -53 2 -58 25 -64 45 -11 55 0 55 64 0 59 -11 82 -40 82 -9 0 -21 -5 -28 -12z"/>
<path d="M6460 2885 c-10 -12 12 -47 126 -205 136 -187 140 -190 175 -190 24 0 39 5 43 16 3 9 6 94 6 189 0 144 -3 176 -16 189 -18 18 -32 20 -54 6 -11 -7 -14 -33 -11 -134 3 -131 -5 -153 -33 -97 -26 50 -163 228 -181 234 -26 11 -41 8 -55 -8z"/>
<path d="M7333 2893 c-19 -7 -16 -70 3 -77 30 -12 269 -7 282 6 18 18 14 56 -7 68 -20 10 -254 13 -278 3z"/>
<path d="M7891 2890 c-43 -10 -89 -56 -97 -97 -5 -25 -3 -34 10 -39 23 -9 66 4 66 20 0 37 86 54 116 24 29 -29 9 -60 -80 -125 -69 -52 -87 -71 -101 -108 -29 -74 -26 -76 132 -73 138 3 138 3 141 30 5 40 -23 50 -116 42 -72 -7 -76 -6 -63 10 8 10 28 24 43 32 41 21 107 82 124 115 19 38 18 68 -6 106 -34 56 -98 80 -169 63z"/>
<path d="M8240 2890 c-75 -18 -116 -103 -108 -225 6 -97 30 -143 86 -167 79 -36 149 -9 184 69 28 63 23 218 -8 260 -42 56 -92 77 -154 63z m85 -92 c15 -14 19 -164 5 -198 -22 -54 -90 -52 -109 2 -12 34 -13 128 -2 168 12 43 73 59 106 28z"/>
<path d="M8582 2890 c-77 -18 -106 -74 -107 -200 0 -77 4 -101 20 -129 62 -105 190 -105 243 -1 31 62 32 194 1 257 -29 60 -89 88 -157 73z m86 -98 c7 -10 12 -48 12 -102 0 -73 -3 -90 -20 -108 -26 -27 -61 -28 -85 -2 -21 23 -31 128 -18 180 15 56 77 74 111 32z"/>
<path d="M8968 2888 c-21 -17 -153 -217 -162 -245 -4 -12 -2 -32 5 -44 10 -20 16 -21 90 -16 78 6 78 6 81 -41 3 -46 3 -47 38 -47 35 0 35 0 38 48 3 39 6 47 23 47 28 0 27 60 -1 67 -18 5 -20 14 -20 112 0 70 -4 111 -12 119 -16 16 -60 15 -80 0z m15 -175 c-5 -50 -6 -51 -40 -55 -43 -5 -51 7 -25 35 11 12 27 37 37 56 22 44 34 29 28 -36z"/>
<path d="M5925 2857 c-32 -32 -40 -55 -36 -97 6 -52 56 -86 162 -109 31 -6 64 -18 74 -25 26 -18 11 -51 -28 -62 -26 -8 -32 -15 -32 -38 0 -46 25 -53 81 -25 40 20 52 31 64 66 13 38 12 46 -3 77 -20 42 -49 58 -153 86 -44 12 -83 25 -88 30 -14 14 0 37 31 52 21 10 28 20 28 43 0 27 -4 30 -33 33 -26 3 -39 -3 -67 -31z"/>
<path d="M6067 2884 c-17 -18 -6 -55 21 -71 16 -9 33 -26 38 -37 11 -25 56 -33 73 -12 16 19 -8 78 -41 100 -29 19 -80 30 -91 20z"/>
<path d="M6968 2870 c-73 -39 -114 -153 -88 -246 29 -103 170 -185 170 -99 0 18 -11 31 -40 50 -28 18 -42 36 -51 64 -21 72 -3 117 75 179 10 8 16 25 14 40 -4 34 -31 38 -80 12z"/>
<path d="M7084 2876 c-10 -25 0 -50 25 -63 14 -6 38 -25 53 -42 32 -34 75 -41 85 -15 10 27 -28 84 -72 110 -47 27 -83 31 -91 10z"/>
<path d="M6285 2717 c-3 -7 -4 -60 -3 -118 3 -104 3 -104 38 -104 35 0 35 0 35 115 0 115 0 115 -33 118 -20 2 -34 -2 -37 -11z"/>
<path d="M7324 2716 c-3 -8 -4 -25 -2 -38 3 -23 4 -23 138 -23 135 0 135 0 135 35 0 35 0 35 -133 38 -108 2 -133 0 -138 -12z"/>
<path d="M5877 2617 c-8 -22 28 -91 54 -104 54 -28 77 -32 89 -18 19 23 7 59 -23 73 -15 8 -32 25 -37 38 -8 19 -17 24 -44 24 -19 0 -36 -6 -39 -13z"/>
<path d="M6454 2617 c-3 -8 -4 -39 -2 -68 3 -54 3 -54 38 -54 35 0 35 0 35 65 0 65 0 65 -33 68 -21 2 -34 -2 -38 -11z"/>
<path d="M7163 2604 c-9 -15 -32 -33 -50 -40 -27 -12 -33 -20 -33 -43 0 -39 22 -45 75 -22 47 21 95 76 95 109 0 18 -6 22 -35 22 -26 0 -39 -6 -52 -26z"/>
<path d="M7333 2563 c-7 -2 -13 -20 -13 -39 0 -35 0 -35 153 -32 150 3 152 3 155 26 7 46 -10 52 -152 51 -72 0 -137 -3 -143 -6z"/>
<path d="M0 38 c0 -34 3 -38 25 -38 27 0 26 10 -9 55 -15 19 -15 18 -16 -17z"/>
<path d="M14930 10 c0 -5 5 -10 10 -10 6 0 10 5 10 10 0 6 -4 10 -10 10 -5 0 -10 -4 -10 -10z"/>
</g>
</svg>